<?xml version="1.0" encoding="utf-8"?>
<!-- Generator: Adobe Illustrator 22.0.1, SVG Export Plug-In . SVG Version: 6.00 Build 0)  -->
<svg version="1.1" id="Layer_1" xmlns="http://www.w3.org/2000/svg" xmlns:xlink="http://www.w3.org/1999/xlink" x="0px" y="0px"
	 viewBox="0 0 100 125" style="enable-background:new 0 0 100 125;" xml:space="preserve">
<style type="text/css">
	.st0{fill:#D1DDE0;}
</style>
<g>
	<path class="st0" d="M90.7,70.1c-2.2,0-4,1.8-4,4v5.3c0,1.9-1.5,3.3-3.4,3.3H16.8c-1.8,0-3.4-1.5-3.4-3.3v-5.3c0-2.2-1.8-4-4-4
		s-4,1.8-4,4v5.3c0,6.2,5.1,11.3,11.4,11.3h66.5c6.3,0,11.4-5.1,11.4-11.3v-5.3C94.7,71.9,92.9,70.1,90.7,70.1z"/>
	<path class="st0" d="M33.5,31.8L45,22v45.5v0.1c0.2,2.1,2,3.9,4.1,3.9c2.2,0,4-1.8,4-4V22l11.6,9.9c0.8,0.6,1.6,0.9,2.5,0.9
		c1.2,0,2.3-0.5,3-1.4c0.7-0.8,1.1-1.8,1-2.9s-0.6-2.1-1.4-2.7l-18-15.5l-0.5-0.5h-0.2l-0.2-0.2h-0.3c-0.1,0-0.1,0-0.2-0.1
		c-0.2-0.1-0.4-0.1-0.7-0.1c-0.4-0.1-0.9-0.1-1.3,0c-0.2,0-0.4,0-0.6,0.1c-0.3,0-0.5,0.1-0.7,0.2H47l-0.4,0.4L28.3,25.8
		c-1.6,1.5-1.8,4-0.4,5.6C29.4,33,31.9,33.2,33.5,31.8z"/>
</g>
</svg>
